<svg xmlns="http://www.w3.org/2000/svg" width="480" height="480" viewBox="0 0 480 480" text-rendering="geometricPrecision" font-family="sans-serif">
<clipPath id="deviceRound"><circle cx="240" cy="240" r="240"/></clipPath>
<g transform="translate(0, 0)" clip-path="url(#deviceRound)">
  <g id="Root">
    <g id="ReusableComposeNode">
      <rect x="0" y="0" width="480" height="480" fill="#000000"/>
      <g id="ReusableComposeNode">
        <g transform="translate(454.4 180) scale(0.8 1)">
          <path d="M6.44,10.41 A224,224 0 0 1 6.44,109.59" fill="none" stroke="#000000" stroke-opacity="0.85" stroke-width="24" stroke-linecap="round"/>
          <path d="M6.44,10.41 A224,224 0 0 1 6.49,10.61" fill="none" stroke="#FFFFFF" stroke-width="12" stroke-linecap="round"/>
          <path d="M4.87,3.94 A0,0 0 1 0 4.87,3.94 A0,0 0 1 0 4.87,3.94 Z" fill="none"/>
          <path d="M3.99,30.09 A6,6 0 1 0 15.99,30.09 A6,6 0 1 0 3.99,30.09 Z" fill="#FFFFFF" fill-opacity="0.3"/>
          <path d="M5.78,50 A6,6 0 1 0 17.78,50 A6,6 0 1 0 5.78,50 Z" fill="#FFFFFF" fill-opacity="0.3"/>
          <path d="M5.78,70 A6,6 0 1 0 17.78,70 A6,6 0 1 0 5.78,70 Z" fill="#FFFFFF" fill-opacity="0.3"/>
          <path d="M3.99,89.91 A6,6 0 1 0 15.99,89.91 A6,6 0 1 0 3.99,89.91 Z" fill="#FFFFFF" fill-opacity="0.3"/>
          <path d="M0.44,109.59 A6,6 0 1 0 12.44,109.59 A6,6 0 1 0 0.44,109.59 Z" fill="#FFFFFF" fill-opacity="0.3"/>
          <path d="M1.15,128.87 A0,0 0 1 0 1.15,128.87 A0,0 0 1 0 1.15,128.87 Z" fill="none"/>
        </g>
      </g>
    </g>
  </g>
</g>
</svg>
