<svg xmlns="http://www.w3.org/2000/svg" width="480" height="480" viewBox="0 0 480 480" text-rendering="geometricPrecision" font-family="sans-serif">
<clipPath id="deviceRound"><circle cx="240" cy="240" r="240"/></clipPath>
<g transform="translate(0, 0)" clip-path="url(#deviceRound)">
  <g id="Root">
    <g id="ReusableComposeNode">
      <g transform="translate(452 200) scale(1 1)">
        <path d="M9.99,10.09 A224,224 0 0 1 9.99,69.91" fill="none" stroke="#000000" stroke-opacity="0.85" stroke-width="24" stroke-linecap="round"/>
        <path d="M9.99,10.09 A224,224 0 0 1 10.02,10.29" fill="none" stroke="#FFFFFF" stroke-width="12" stroke-linecap="round"/>
        <path d="M9.01,3.5 A0,0 0 1 0 9.01,3.5 A0,0 0 1 0 9.01,3.5 Z" fill="none"/>
        <path d="M5.78,30 A6,6 0 1 0 17.78,30 A6,6 0 1 0 5.78,30 Z" fill="#FFFFFF" fill-opacity="0.3"/>
        <path d="M5.78,50 A6,6 0 1 0 17.78,50 A6,6 0 1 0 5.78,50 Z" fill="#FFFFFF" fill-opacity="0.3"/>
        <path d="M3.99,69.91 A6,6 0 1 0 15.99,69.91 A6,6 0 1 0 3.99,69.91 Z" fill="#FFFFFF" fill-opacity="0.3"/>
        <path d="M6.44,89.59 A0,0 0 1 0 6.44,89.59 A0,0 0 1 0 6.44,89.59 Z" fill="none"/>
      </g>
    </g>
  </g>
</g>
</svg>
