<svg xmlns="http://www.w3.org/2000/svg" width="432" height="432" viewBox="0 0 432 432" text-rendering="geometricPrecision" font-family="sans-serif">
<clipPath id="deviceRound"><circle cx="216" cy="216" r="216"/></clipPath>
<g transform="translate(0, 0)" clip-path="url(#deviceRound)">
  <g id="Root">
    <g id="Spacer">
      <g transform="translate(0 0) scale(1 1)">
        <path d="M179.54,412.65 H179.54 A0,0 0 0 1 179.54,412.65 V412.65 A0,0 0 0 1 179.54,412.65 H179.54 A0,0 0 0 1 179.54,412.65 V412.65 A0,0 0 0 1 179.54,412.65 Z" fill="none"/>
        <path d="M206,409.75 H206 A6,6 0 0 1 212,415.75 V415.75 A6,6 0 0 1 206,421.75 H206 A6,6 0 0 1 200,415.75 V415.75 A6,6 0 0 1 206,409.75 Z" fill="#CAC4D0"/>
        <path d="M226,409.75 H226 A6,6 0 0 1 232,415.75 V415.75 A6,6 0 0 1 226,421.75 H226 A6,6 0 0 1 220,415.75 V415.75 A6,6 0 0 1 226,409.75 Z" fill="#CAC4D0"/>
        <path d="M245.89,407.75 H245.89 A6,6 0 0 1 251.89,413.75 V413.75 A6,6 0 0 1 245.89,419.75 H245.89 A6,6 0 0 1 239.89,413.75 V413.75 A6,6 0 0 1 245.89,407.75 Z" fill="#CAC4D0"/>
        <path d="M186.11,407.75 H186.11 A6,6 0 0 1 192.11,413.75 V413.75 A6,6 0 0 1 186.11,419.75 H186.11 A6,6 0 0 1 180.11,413.75 V413.75 A6,6 0 0 1 186.11,407.75 Z" fill="#F6EDFF"/>
        <path d="M186.11,407.75 H186.11 A6,6 0 0 1 192.11,413.75 V413.75 A6,6 0 0 1 186.11,419.75 H186.11 A6,6 0 0 1 180.11,413.75 V413.75 A6,6 0 0 1 186.11,407.75 Z" fill="#F6EDFF"/>
        <path d="M186.11,413.75 A200,200 0 0 1 186.11,413.75" fill="none"/>
      </g>
    </g>
  </g>
</g>
</svg>
