<svg xmlns="http://www.w3.org/2000/svg" width="454" height="454" viewBox="0 0 454 454" text-rendering="geometricPrecision" font-family="sans-serif">
<clipPath id="deviceRound"><circle cx="227" cy="227" r="227"/></clipPath>
<g transform="translate(0, 0)" clip-path="url(#deviceRound)">
  <g id="Root">
    <g id="ReusableComposeNode">
      <rect x="0" y="0" width="454" height="454" fill="#000000"/>
      <g id="ReusableComposeNode">
        <g transform="translate(4 5.2) scale(1 0.89)">
          <path d="M10,11.76 A211,211 0 0 0 30,11.76" fill="none" stroke="#000000" stroke-opacity="0.85" stroke-width="24" stroke-linecap="round"/>
          <path d="M10,11.76 A211,211 0 0 0 10.2,11.77" fill="none" stroke="#FFFFFF" stroke-width="12" stroke-linecap="round"/>
          <path d="M3.35,11.34 A0,0 0 1 0 3.35,11.34 A0,0 0 1 0 3.35,11.34 Z" fill="none"/>
          <path d="M24,11.76 A6,6 0 1 0 36,11.76 A6,6 0 1 0 24,11.76 Z" fill="#FFFFFF" fill-opacity="0.3"/>
          <path d="M49.9,9.87 A0,0 0 1 0 49.9,9.87 A0,0 0 1 0 49.9,9.87 Z" fill="none"/>
        </g>
      </g>
    </g>
  </g>
</g>
</svg>
